<svg xmlns="http://www.w3.org/2000/svg" viewBox="0 0 320 260.11"><g id="图层_2" data-name="图层 2"><g id="图层_1-2" data-name="图层 1"><path d="M203.64,0l10.44,4.73-.41,1c.29-.2.6-.38.88-.6,8-6.15,14.63-5.31,19.89,3.21,2.13,3.45,2.79,7.78,4.25,11.66a19.1,19.1,0,0,0,2,3.29c2,3.1,4.41,6,5.74,9.34,1.74,4.37-.58,8.18-5.12,9.49-3,.85-6,1.41-9,2.11a53.41,53.41,0,0,1,.39,6.9c-.42,6.18-5.82,9.48-11.34,6.92-2.66-1.23-5.11-2.89-8.21-4.67-.42,4.92-1.34,9.78-1.16,14.61.37,10.52,1.36,21,2,31.53.16,2.71.44,5.62-.32,8.13-1.47,4.87-.36,9,2.18,13l4.61,7.42c1-3.64,1.88-6.45,2.6-9.3a92.64,92.64,0,0,1,14.36-30.3c.82-1.17,2.78-2.71,3.67-2.42,1.39.45,2.7,2.16,3.33,3.64a20.35,20.35,0,0,1,1.09,5.82c1.4,13.35,8.22,24.78,12.58,37.07l1.14.05c.83-3.87,1.58-7.75,2.48-11.6q7.5-31.9,15.14-63.78c.33-1.37,1.6-2.52,2.44-3.77A24.62,24.62,0,0,1,283,56.7a10.94,10.94,0,0,1,1.62,3.72c7.61,24.57,15.83,49,19.73,74.54,2.58,16.88,4.65,33.85,6.62,50.82,1.9,16.39,3.34,32.84,5,49.26.51,4.93,1,9.87,1.8,14.75.3,1.84,1.45,3.55,2.22,5.32v2.24c-1.23.39-2.47,1.15-3.7,1.12-3-.06-6.09-.9-9.07-.66-7.29.58-14.54,2.34-21.8,2.3-32.14-.16-64.29-1-96.43-1.19-31.77-.18-63.44-3.4-95.29-1.85-16.66.82-33.46-.47-50.16-1.48-11.95-.72-23.79-1.67-35.45,1.82-3.25,1-5.8-.15-8.1-2.3v-1.49c.75-3.92,1.72-7.81,2.2-11.75,1.3-10.81,2.44-21.63,3.56-32.45.88-8.5,1.61-17,2.46-25.5.89-8.85,1.74-17.71,2.8-26.54,1.46-12.13,3.11-24.23,4.65-36.35,1.49-11.76,2.89-23.53,4.46-35.28.15-1.12,1.35-3.06,1.87-3a5.35,5.35,0,0,1,3.63,2c2.28,3.68,4.06,7.67,6.27,11.4q11.87,20,23.93,39.92a44.81,44.81,0,0,0,3.42,4.37c3.72-13.4,7.23-26.26,10.87-39.09q4-14.2,8.38-28.31c.4-1.31,1.49-2.4,2.26-3.6,1.43,1,3.39,1.76,4.2,3.15,1.86,3.2,2.74,7,4.77,10.06,6.1,9.19,12.61,18.12,18.87,27.2,4.07,5.91,8,11.92,12,17.88l1-.19c.74-4.25,1.15-8.59,2.28-12.74,2.85-10.43,6-20.8,9.16-31.13.45-1.46,2.23-3.74,3-3.6,1.69.31,3.19,1.9,4.66,3.1a4.12,4.12,0,0,1,1.17,1.88c3.56,11.26,11.88,19.33,18.86,28.3,3,3.91,5.91,8,8.89,11.94a12.54,12.54,0,0,0,1.71,1.43c1-15.86,6.8-29.87,12.19-44a39.23,39.23,0,0,1,3.05-5.9c1.74-2.92,4.09-3.12,6.13-.42.94,1.25,1.32,2.9,2,4.35,4.24,9,8.5,18,13.26,26.84,2.73-4.81,1.32-9.43.69-14a145.4,145.4,0,0,1-.75-37.51,45.56,45.56,0,0,0,0-4.86c-2.7.44-5.21.84-7.71,1.27-6.78,1.14-14.13-2.57-16.83-8.93-2.4-5.64-2-14.09,4.28-18.44a24.23,24.23,0,0,0,2.43-2.2c-.74-2.16-1.77-4.19-2.09-6.32-1.15-7.8,3.41-13.8,11.78-15.86.79-.2,1.55-.53,2.32-.8ZM82.9,80.37a21.73,21.73,0,0,0-1.33,2.85Q73.35,112,65.2,140.77c-1.25,4.46-4.67,5.81-8.07,2.58a50.39,50.39,0,0,1-8-9.66c-5.13-8.17-9.82-16.61-14.76-24.9-3-5.09-6.24-10.1-9.54-15.43C17.3,145.62,12.25,197.65,7,248.94c9.22-.21,17.51-.8,25.77-.49,10,.38,20,2,30.05,2.22,12.9.26,25.81-.67,38.72-.52,18.11.2,36.23.82,54.34,1.44,24.58.84,49.14,2,73.72,2.72,14.53.4,29.08.3,43.62.08,7.42-.12,14.83-.95,22.23-1.6,5.87-.51,11.73-1.23,17.75-1.88-.49-3.13-1.13-6.15-1.41-9.2-1.1-12.35-2-24.72-3.16-37.07q-1.94-20.14-4.31-40.26c-1-8.71-2-17.47-3.77-26-4.26-20.92-7.72-42.05-15.56-62.09-1.54-3.94-2.41-8.13-3.58-12.21h-1c-.89,4-1.73,8.11-2.66,12.14-4,17.26-8,34.52-12,51.75a69.08,69.08,0,0,1-3.12,9.44c-1,2.55-3.16,2.6-4.65.72a38.15,38.15,0,0,1-5.65-9c-4.39-10.95-8.4-22-12.57-33.14a24.32,24.32,0,0,0-2.17,2.88,96.87,96.87,0,0,0-11.08,29.06c-.38,2-2.17,5.28-3.08,5.21-2.16-.18-4.22-2-6.26-3.21a4.16,4.16,0,0,1-1.05-1.52c-5.44-9.14-10.95-18.24-16.27-27.45-3.29-5.71-6.3-11.58-9.82-18.1-1.12,2.35-2.08,4-2.74,5.84-4.85,13.15-9.66,26.3-10.9,40.45-.34,3.92-2.32,4.81-5.39,2.42a38.52,38.52,0,0,1-6.74-6.88c-8.93-11.58-17.72-23.27-26.66-35.06a19.05,19.05,0,0,0-1.65,3.58c-2.9,12-5.66,24.1-8.58,36.14-.41,1.68-1.45,4.63-2.08,4.6a9.53,9.53,0,0,1-5.9-2.22,70.23,70.23,0,0,1-8-9.78C101.93,108.32,92.64,94.62,82.9,80.37Zm131.92-68A13.74,13.74,0,0,1,213,10.76c-4.62-5.72-10.64-6.53-16.79-2.2-5.07,3.56-5,9.9-.1,13.51,1,.75,1.53,2.41,1.89,3.76.1.37-1.21,1.64-1.83,1.61-3.85-.19-5.92,2.49-7.83,5-3.78,4.93-1.92,13.38,3.61,14.05a38.77,38.77,0,0,0,16.57-2.11c3.12-1.06,4.6-.54,5.41,1.69,1.37,3.76,4.13,5.54,7.59,6.38,1.59.38,4.23.41,5-.53,1.19-1.52,1.51-3.94,1.61-6,.06-1.21-1-2.48-1.6-3.71-1.25-2.61-.53-3.9,2.44-4.18,3.32-.32,6.63-.86,9.93-1.4,3.49-.57,4.89-3.37,2.69-6.11-1.47-1.84-4-2.79-5.72-4.49-1.42-1.41-3.64-4.26-3.23-4.85,1.49-2.08,2.73-3.85,1.39-6.33a28.7,28.7,0,0,0-3.88-6.26C227,5.22,223.57,5,219.78,7.63,218.06,8.83,216.7,10.56,214.82,12.39Z"/><path d="M82.9,80.37c9.74,14.25,19,27.95,28.45,41.55a70.23,70.23,0,0,0,8,9.78,9.53,9.53,0,0,0,5.9,2.22c.63,0,1.67-2.92,2.08-4.6,2.92-12,5.68-24.1,8.58-36.14a19.05,19.05,0,0,1,1.65-3.58c8.94,11.79,17.73,23.48,26.66,35.06a38.52,38.52,0,0,0,6.74,6.88c3.07,2.39,5.05,1.5,5.39-2.42,1.24-14.15,6-27.3,10.9-40.45.66-1.8,1.62-3.49,2.74-5.84,3.52,6.52,6.53,12.39,9.82,18.1,5.32,9.21,10.83,18.31,16.27,27.45a4.16,4.16,0,0,0,1.05,1.52c2,1.24,4.1,3,6.26,3.21.91.07,2.7-3.24,3.08-5.21a96.87,96.87,0,0,1,11.08-29.06A24.32,24.32,0,0,1,239.7,96c4.17,11.09,8.18,22.19,12.57,33.14a38.15,38.15,0,0,0,5.65,9c1.49,1.88,3.63,1.83,4.65-.72a69.08,69.08,0,0,0,3.12-9.44c4.08-17.23,8.05-34.49,12-51.75.93-4,1.77-8.09,2.66-12.14h1c1.17,4.08,2,8.27,3.58,12.21,7.84,20,11.3,41.17,15.56,62.09,1.75,8.58,2.74,17.34,3.77,26q2.37,20.1,4.31,40.26c1.19,12.35,2.06,24.72,3.16,37.07.28,3,.92,6.07,1.41,9.2-6,.65-11.88,1.37-17.75,1.88-7.4.65-14.81,1.48-22.23,1.6-14.54.22-29.09.32-43.62-.08-24.58-.69-49.14-1.88-73.72-2.72-18.11-.62-36.23-1.24-54.34-1.44-12.91-.15-25.82.78-38.72.52-10-.2-20-1.84-30.05-2.22-8.26-.31-16.55.28-25.77.49C12.25,197.65,17.3,145.62,24.83,93.36c3.3,5.33,6.5,10.34,9.54,15.43,4.94,8.29,9.63,16.73,14.76,24.9a50.39,50.39,0,0,0,8,9.66c3.4,3.23,6.82,1.88,8.07-2.58Q73.33,112,81.57,83.22A21.73,21.73,0,0,1,82.9,80.37ZM224.49,166c-.06-2.89-2.12-5.51-4.37-5.55s-5.16,3.52-4.94,6.4c.2,2.63,1.68,4.45,4.33,4.66C222.64,171.75,224.56,169.44,224.49,166Zm32.14.52c0,2.52,2.9,6.23,4.78,5.48a7.74,7.74,0,0,0,4.18-4.29c.77-2.62-2.18-6.29-4.35-6.43S256.66,163.73,256.63,166.52Z" style="fill:#58a553"/><path d="M214.82,12.39c1.88-1.83,3.24-3.56,5-4.76,3.79-2.64,7.23-2.41,10.34.91A28.7,28.7,0,0,1,234,14.8c1.34,2.48.1,4.25-1.39,6.33-.41.59,1.81,3.44,3.23,4.85,1.72,1.7,4.25,2.65,5.72,4.49,2.2,2.74.8,5.54-2.69,6.11-3.3.54-6.61,1.08-9.93,1.4-3,.28-3.69,1.57-2.44,4.18.59,1.23,1.66,2.5,1.6,3.71-.1,2.08-.42,4.5-1.61,6-.74.94-3.38.91-5,.53-3.46-.84-6.22-2.62-7.59-6.38-.81-2.23-2.29-2.75-5.41-1.69A38.77,38.77,0,0,1,192,46.46c-5.53-.67-7.39-9.12-3.61-14.05,1.91-2.48,4-5.16,7.83-5,.62,0,1.93-1.24,1.83-1.61-.36-1.35-.87-3-1.89-3.76-4.93-3.61-5-10,.1-13.51C202.36,4.23,208.38,5,213,10.76A13.74,13.74,0,0,0,214.82,12.39Z" style="fill:#ffed07"/><path d="M224.49,166c.07,3.44-1.85,5.75-5,5.51-2.65-.21-4.13-2-4.33-4.66-.22-2.88,2.62-6.44,4.94-6.4S224.43,163.11,224.49,166Z"/><path d="M256.63,166.52c0-2.79,2.32-5.4,4.61-5.24s5.12,3.81,4.35,6.43a7.74,7.74,0,0,1-4.18,4.29C259.53,172.75,256.6,169,256.63,166.52Z"/></g></g></svg>