<svg xmlns="http://www.w3.org/2000/svg" viewBox="0 0 320 346.6"><g id="图层_2" data-name="图层 2"><g id="图层_1-2" data-name="图层 1"><path d="M6.7,239.4c12.11-31.66,34.93-54.53,60-75.75,15.81-13.4,32.1-26.24,47.75-39.81,22.74-19.71,28.16-45.43,24.4-74-.95-7.23-2.09-14.43-3-21.66-1-7.89,1.5-11.09,9.75-7.44,12.2,5.41,22,13.87,30.87,23.52,3.82,4.16,7.14,8.79,11.89,14.69.57-13.48-4.68-23.57-8-34.16-2.26-7.28-9.38-15.94-2.54-22.11,7.5-6.77,16.08,1,22.73,5.13,15.71,9.69,29.69,21.89,42.55,35.1,8.26,8.5,16.56,12.18,28.63,9.15,10.7-2.69,22-3,33.05-4.33,6.9-.85,12.48.75,15.21,7.81l-1.77,5.75c-3.06,2-4.18,5.65-6,8.51C302.34,85,290,98.1,277.55,111.09c-11.41,11.92-15.66,26-15.45,41.95.49,36.52-.56,72.79-11.47,108.18-2.31,7.5-1.27,16-2,24-.38,4.06,0,6,5.17,6,8.41,0,11.2,4.8,9,13.05-3.5,13.18-12.22,21.92-23.65,28.08-15.75,8.48-33.32,10.91-50.64,14l-102.69.23a50.69,50.69,0,0,1-6.73-.51c-16.81-2.23-34.79.33-51.23-4.17-9.23-2.52-16.6-5.91-20-18h0a127.09,127.09,0,0,1-1.14-84.42ZM249.33,58.91C229.58,40.73,211.75,20,182.83,8.76c2.35,6.87,3.6,11.14,5.25,15.25,4.44,11.07,8.7,22.26,9.92,34.14.69,6.75,6.84,16.83-.57,19.69-6.67,2.58-10.22-8.46-14.44-14.07-10.13-13.51-20.56-26.56-36.6-33.65-1.86,3.29-.63,5.86,0,8.4,10,44.18-1.24,80-39.59,106.68-21.7,15.12-42.27,32.05-60.56,51.34C16.43,227.92,1.57,264.22,11.73,308c4.85,20.9,14,28,35.16,28.85,33,1.3,66,3,99,4.17,28.21,1,56-1.49,82.47-12.3,10.81-4.41,18.33-12.46,23.61-22.55,1.16-2.21,4.26-8-2-7.48-21.15,1.9-33.6-13.19-48-23.89-34.67-25.78-88.8-21.17-118,10.77-4.91,5.36-9.75,11-15.51,15.33-8.83,6.65-18.69,9.32-29.14,2.88-1.72-1.06-3.45-2.32-2.57-4.46.94-2.32,3.1-1.7,4.86-.9,11.87,5.39,19.71-.9,26.94-9.15,4-4.63,8.26-9.11,12.28-13.76,13.33-15.44,30.53-22.46,50.55-24,13.12-1,26,.05,38.95,2a163.39,163.39,0,0,1,34.68,14.06c-1.61-9.42-3-16.91-4.13-24.43-.49-3.19-2.7-8.05.93-9.15,5-1.52,5.72,4.12,6.49,7.54,2.08,9.33,3.4,18.82,5.39,28.18,2,9.56,6.93,10.88,14.36,5.48,14.88-10.8,17.17-27.59,20.16-43.3,5-26.37,5.07-53.28,5-80.12-.08-18,4.34-34.24,16.86-48.48,8.12-9.23,18.66-16.64,24.34-27.69l-11.76-6.2c-1.28-5.26-3.33-8.68-10-6.74a34.15,34.15,0,0,1-17.67,0Z" style="fill:#0c0a09"/><path d="M254.9,62.67a34.15,34.15,0,0,0,17.67,0c6.64-1.94,8.69,1.48,10,6.73-5,3.52-9.81,7.32-15,10.53-38.05,23.61-57.24,57.33-55.22,102.47a65.59,65.59,0,0,1-4.3,25.81c-7.18,19.75-22.71,32.27-37.76,45.31-12.92-1.92-25.83-3-38.95-2-20,1.55-37.22,8.57-50.55,24-4,4.65-8.23,9.13-12.28,13.76-7.23,8.25-15.07,14.54-26.94,9.15-1.76-.8-3.92-1.42-4.86.9-.88,2.14.85,3.4,2.57,4.46,10.45,6.44,20.31,3.77,29.14-2.88,5.76-4.33,10.6-10,15.51-15.33,29.23-31.94,83.36-36.55,118-10.77,14.39,10.7,26.84,25.79,48,23.89,6.29-.56,3.19,5.27,2,7.48-5.28,10.09-12.8,18.14-23.61,22.55C201.86,339.54,174.08,342,145.87,341c-33-1.18-66-2.87-99-4.17C25.7,336,16.58,328.91,11.73,308c-10.16-43.79,4.7-80.09,34.46-111.47,18.29-19.29,38.86-36.22,60.56-51.34,38.35-26.72,49.61-62.5,39.59-106.68-.58-2.54-1.81-5.11,0-8.4,16,7.09,26.47,20.14,36.6,33.65,4.22,5.61,7.77,16.65,14.44,14.07,7.41-2.86,1.26-12.94.57-19.69-1.22-11.88-5.48-23.07-9.92-34.14-1.65-4.11-2.9-8.38-5.25-15.25,28.92,11.21,46.75,32,66.49,50.15-2.86,2.7-5.44,5.53-1.26,9.1,1.92,1.64,4.24,4.13,6.78,2.63C258.48,68.47,253.92,65.38,254.9,62.67ZM231.84,85.45c-1.61-3.39-2.67-8.11-7.37-8.77-4-.56-4.62,3.15-4.36,6.28.37,4.59,2.88,8.06,7.52,8.49C230.72,91.73,231.65,88.7,231.84,85.45Z" style="fill:#fb713f"/><path d="M170.26,253.48c15.05-13,30.58-25.56,37.76-45.31a65.59,65.59,0,0,0,4.3-25.81c-2-45.14,17.17-78.86,55.22-102.47,5.18-3.21,10-7,15-10.53,3.69,2,7.37,3.9,11.77,6.21C288.62,86.62,278.08,94,270,103.26c-12.52,14.24-16.94,30.5-16.86,48.48.11,26.84.05,53.75-5,80.12-3,15.71-5.28,32.5-20.16,43.3-7.43,5.4-12.32,4.08-14.36-5.48-2-9.36-3.31-18.85-5.39-28.18-.77-3.42-1.5-9.06-6.49-7.54-3.63,1.1-1.42,6-.93,9.15,1.17,7.52,2.52,15,4.13,24.43A163.39,163.39,0,0,0,170.26,253.48Z" style="fill:#fcfcfc"/><path d="M254.9,62.67c-1,2.71,3.58,5.8-.06,8-2.54,1.5-4.86-1-6.78-2.63-4.18-3.57-1.6-6.4,1.26-9.1Z" style="fill:#0c0a09"/><path d="M231.84,85.45c-.19,3.25-1.12,6.28-4.21,6-4.64-.43-7.15-3.9-7.52-8.49-.26-3.13.34-6.84,4.36-6.28C229.17,77.34,230.23,82.06,231.84,85.45Z" style="fill:#0c0a09"/></g></g></svg>