<svg xmlns="http://www.w3.org/2000/svg" viewBox="0 0 320 229.2"><g id="图层_2" data-name="图层 2"><g id="图层_1-2" data-name="图层 1"><path d="M214,0l7.52,7.55c-.48.1-.14.13,0,0,6.27-8.94,11.18-8.88,17.31.21,8.34,12.36,3.23,27.83-10.85,32.64-3,1-6.18,1.76-9.61,2.71,1,7.56,2.09,15.15,3.22,23.3,6.57.5,13.16,1.47,19.74,1.39,19.45-.21,36.25,7.32,50.35,19.52,6.91,6,11.34,15.36,15.47,23.88,7.5,15.49,11.18,32.16,12.14,49.38a9.4,9.4,0,0,0,.8,2.32v11.88c-3.15,14.54-15,22.42-24.61,32a116.46,116.46,0,0,1-13.05,10.77c-8.48,6.25-18.32,8.59-28.64,9-26.31,1-52.5-.75-78.71-3a188.1,188.1,0,0,0-58.1,4.07c-19.29,4.36-36.8.11-52.84-11.24-7.8-5.53-15.7-11-23.9-15.85-2.45-1.45-6.09-.91-9.19-1.24a3.7,3.7,0,0,0-1.24.25c-15.3,4.29-25-1.26-27.69-17-4.38-25.91-1.94-51.19,10-75,5.62-11.19,15.41-17.72,27-21.55,9.84-3.25,19.81-6.09,29.69-9.22,16.35-5.18,33-5.68,49.66-2.47,10.2,2,20.22,4.89,30.46,6.54,4.64.74,10.1.59,14.35-1.17,14-5.83,28.23-9.88,43.37-11.06,3.25-.25,6.36-2.28,10.06-3.7Q215.27,54.55,214,44.47c-14.5.25-25.47-22-19.6-31.78.58-1,1-2,1.59-3,2.83-4.45,5.17-4.93,9.17-2.32L212.25,0Zm16.21,221.44.06-.86c6.5,0,13,.24,19.5-.05,13.39-.61,26-3.63,35.83-13.59,6.55-6.63,13.1-13.26,19.38-20.14,5.21-5.72,7.47-12.52,7.78-20.45.68-17.59-3.81-34.12-9.21-50.49-8-24.38-26.37-36.36-50.62-40.41-7.34-1.23-14.89-1.33-22.35-1.63a130,130,0,0,0-18.09.12c-16.34,1.65-32.21,5.26-47.11,12.52-5.88,2.87-12.1,2.1-18.27.75-10.86-2.38-21.66-5.13-32.61-7A87.1,87.1,0,0,0,72.2,83.19q-13.26,4.38-26.72,8.1c-14.45,4-25.3,11.94-31.06,26.26-4.8,11.93-8,24.24-8,37,0,10.65.38,21.54,2.6,31.89,2.07,9.66,5.68,11.49,14.59,8.07a16.5,16.5,0,0,1,5.31-1.28c2.72-.08,5.84-.45,8.13.66a167.5,167.5,0,0,1,17.19,9.87c7.21,4.64,13.85,10.28,21.36,14.33,13.67,7.39,28.35,6.13,42.89,2.84,17.22-3.9,34.65-4.5,52.16-3.51C190.47,218.59,210.31,220.09,230.16,221.44ZM223.13,19l-1.45.76c-1.41-2.88-2.72-5.8-4.25-8.6a47.39,47.39,0,0,0-3.15-4.51A34.15,34.15,0,0,0,210.73,12c-.59,1.33-.19,3.06-.37,4.6s-.52,2.84-.79,4.25l-1.49.44c-1.85-3-3.69-6.11-5.55-9.17-5.42,4.57-6.34,11.63-2.57,18.46,4,7.24,7.13,8.58,14.58,6.3.79-.24,1.7-.12,2.48-.38,4.38-1.41,9.08-2.27,13-4.46,10.45-5.78,9.47-17,4.87-22.76-2.49-3.11-5.84-3-7.79.54C225.53,12.68,224.45,15.88,223.13,19Z"/><path d="M230.16,221.44c-19.85-1.35-39.69-2.85-59.55-4-17.51-1-34.94-.39-52.16,3.51-14.54,3.29-29.22,4.55-42.89-2.84-7.51-4.05-14.15-9.69-21.36-14.33A167.5,167.5,0,0,0,37,193.92c-2.29-1.11-5.41-.74-8.13-.66a16.5,16.5,0,0,0-5.31,1.28C14.66,198,11.05,196.13,9,186.47c-2.22-10.35-2.6-21.24-2.6-31.89,0-12.79,3.24-25.1,8-37C20.18,103.23,31,95.28,45.48,91.29q13.46-3.71,26.72-8.1a87.1,87.1,0,0,1,42.25-2.94c11,1.83,21.75,4.58,32.61,7,6.17,1.35,12.39,2.12,18.27-.75,14.9-7.26,30.77-10.87,47.11-12.52a130,130,0,0,1,18.09-.12c7.46.3,15,.4,22.35,1.63,24.25,4,42.58,16,50.62,40.41,5.4,16.37,9.89,32.9,9.21,50.49-.31,7.93-2.57,14.73-7.78,20.45-6.28,6.88-12.83,13.51-19.38,20.14-9.85,10-22.44,13-35.83,13.59-6.49.29-13,.05-19.5.05Zm-5-115.83c-.69-.55-2.73-3-3.59-2.7-2.18.9-3.83,3.09-5.69,4.76,1.61,1.47,3,3.86,4.85,4.2C223.57,112.41,225.35,110.33,225.14,105.61Zm27.56,1c-2.41-2.45-3.9-4.49-5.89-5.61-.51-.29-3.43,2.09-3.87,3.63-.76,2.67,2.55,6.92,4.6,6.28C249.18,110.39,250.41,108.58,252.7,106.6Z" style="fill:#8cc47e"/><path d="M223.13,19c1.32-3.08,2.4-6.28,4-9.19,2-3.52,5.3-3.65,7.79-.54,4.6,5.74,5.58,17-4.87,22.76-4,2.19-8.66,3.05-13,4.46-.78.26-1.69.14-2.48.38-7.45,2.28-10.57.94-14.58-6.3-3.77-6.83-2.85-13.89,2.57-18.46,1.86,3.06,3.7,6.12,5.55,9.17l1.49-.44c.27-1.41.63-2.82.79-4.25s-.22-3.27.37-4.6a34.15,34.15,0,0,1,3.55-5.34,47.39,47.39,0,0,1,3.15,4.51c1.53,2.8,2.84,5.72,4.25,8.6Z" style="fill:#f9f041"/><path d="M225.14,105.61c.21,4.72-1.57,6.8-4.43,6.26-1.81-.34-3.24-2.73-4.85-4.2,1.86-1.67,3.51-3.86,5.69-4.76C222.41,102.56,224.45,105.06,225.14,105.61Z"/><path d="M252.7,106.6c-2.29,2-3.52,3.79-5.16,4.3-2,.64-5.36-3.61-4.6-6.28.44-1.54,3.36-3.92,3.87-3.63C248.8,102.11,250.29,104.15,252.7,106.6Z"/></g></g></svg>