<svg xmlns="http://www.w3.org/2000/svg" viewBox="0 0 320 192.91"><g id="图层_2" data-name="图层 2"><g id="图层_1-2" data-name="图层 1"><path d="M183.23,192.5c-16.24-.06-34-1.39-51.46-5.29C105.7,181.38,81.08,172,59,156.57c-16.32-11.42-25.81-27.43-31.15-46.19-1-3.64-.37-7.54-1-11.22-2-12-1-24,.14-35.8.79-8.19,3.06-16.34,5.67-24.26C35.07,32,37.72,25,40,17.89c2-6.27,5.89-11.36,9.75-16.51,1.53-2,3-1.64,4.36,0a14.09,14.09,0,0,1,1.93,3c4.66,9.8,9.25,19.64,11.55,30.33.42,1.92,1.22,2,2.72,1.53a7.31,7.31,0,0,0,5-4.71c3.26-9.11,10.08-15.48,16.86-21.87,1.47-1.39,3.2-2.77,5.45-1.79a6.41,6.41,0,0,1,3.91,5.59c.61,6.34-.55,12.59-1,18.87-.17,2.29-1.78,5.33-.82,6.66,1.48,2.06,5,1.93,7.6,2.34,6.6,1,13.29,1.45,19.92,2.28,5.46.67,10.89,1.48,16.31,2.38a8.45,8.45,0,0,1,5.91,4.27c1.62,2.66,1.6,4.8-1.4,6.59C136.8,63.62,125.34,70,113.52,75.7a78.17,78.17,0,0,0-11,5.81c-1.31.91-2,1.82-1.18,3.57s1.9,1.25,3.2,1c6.55-1.26,13.23-1.86,19.55-4.23a4.9,4.9,0,0,0,3.2-2.52c3.69-7.73,8-9.39,15.25-4.64,4.57,3,9.11,3.42,14.17,3.55,11.57.28,23.18.76,34.12,5.16,2,.83,2.31-.31,2.62-1.55a54.79,54.79,0,0,1,5-13.15c2.63-4.83,6.72-7.39,12.21-7.18,2.18.09,4.18-.71,6.32-.62,1.48.06,2.79.65,3,2,.3,1.89-1.52,1.26-2.52,1.61a38.39,38.39,0,0,1-7,1.55,9.72,9.72,0,0,0-7.32,5.2,64,64,0,0,0-4.5,11.24c-1.3,3.89,1.8,5.77,4,7.62,13.49,11.25,20.92,25.49,21.5,43.06.17,5.34-.76,10.7-.62,16.09,0,2,.58,2.63,2.46,1.89.22-.08.43-.21.66-.29,7-2.46,7.48-3.12,5.92-10.47a146,146,0,0,1-2.18-47.86,104.34,104.34,0,0,1,6.94-25.7c4.5-11.49,8.93-23,7.16-35.75-.39-2.83-.93-5.63-1.52-8.43C242.58,20.41,241,19,239,17.93a14.62,14.62,0,0,1-5.41-4.59c-2.39-3.58-1.64-5.42,2.49-6.29,4.57-1,9-.33,13.45.77,20,5,35.63,16.08,44.87,34.75,7.82,15.8,8.91,32.76,8,50.23-1.11,21.07-10.06,39.25-18.86,57.63a35.38,35.38,0,0,1-12.31,14.2c-7.12,4.84-14.33,9.54-21.46,14.38-11.29,7.66-24.18,10.53-37.37,12.54A127.76,127.76,0,0,1,183.23,192.5ZM128.12,55.69c-.18-1.41-.69-2.88-.46-4.22.41-2.43-.64-3-2.76-3.19-5.36-.5-10.7-1.2-16.06-1.79-.78-.09-1.7-.53-2.29.4-2.39,3.76-4.49,1-5.86-.68a12.35,12.35,0,0,0-3.94-3.39c-2.88-1.58-3.37-3.72-2.46-6.92,1.94-6.78,2-13.88,2.77-20.86.19-1.91-.87-2.15-2.1-.92-5,5.07-10.66,9.68-13.76,16.4-.9,1.95-1.72,3.95-2.77,5.83-1.63,2.92-7,5.28-10.24,4.74-3.78-.63-4.62-3.38-5.38-6.63A113.84,113.84,0,0,0,52.46,7a30.23,30.23,0,0,0-6.87,10.11C36.28,41,29.58,65.36,30.34,91.29A78.66,78.66,0,0,0,33,111c5.07,17.38,14.21,32.32,29.39,43,19.22,13.53,40.58,22.24,63.2,28.15,25.25,6.59,51.05,8,76.91,6.9,14.94-.65,29.74-3.61,42.63-12.27,6.45-4.33,13-8.56,19.38-13,4.95-3.4,9.64-7.13,12.47-12.63a296.46,296.46,0,0,0,13.67-30.26c6.57-17.4,7.82-35.48,5.59-53.81-2.43-20-10.74-36.58-28.22-47.64-8.2-5.18-17.08-8.57-27-8.47-1,0-2.45-.14-2.79,1s.94,1.82,1.76,2.45c1,.8,2.25,1.37,3.3,2.15a10.74,10.74,0,0,1,4.38,5.95A62.24,62.24,0,0,1,249.79,41c-.56,9.48-3.63,18.26-7.24,26.87-7.63,18.23-9.3,37.2-7.4,56.63.67,6.89,2.53,13.63,2.8,20.58.09,2.45.08,5.39-2.36,6.35-5,1.94-9.75,4.56-15.18,5.13-2.24.23-3.21-.73-2.47-3,1.38-4.2.63-8.49.58-12.75,2-13.9-1.88-26.37-9.51-37.79a41.33,41.33,0,0,0-9.84-10.85c-1.08-.79-1.89-1.74-3.67-.62-1.36.86-3.86,0-3.93-1.79-.12-2.71-1.91-3-3.62-3.62-11-3.89-22.47-3.83-33.88-4.32-.44,0-1.23.16-1.27.36-.71,3.92-2.85,1.77-4.29.85a8.66,8.66,0,0,0-5.86-1,59.25,59.25,0,0,0-13.75,3c-6.92,2.43-14.37,3.37-21.67,4.62-6.57,1.12-6.34.78-10.88-4.21-3-3.35-.83-4.38,1.11-5.72,4.61-3.21,9.31-6.3,14.13-9.17C118.12,66.74,124.8,63.1,132,59,130.47,57.69,129.3,56.69,128.12,55.69Z" style="fill:#0d0a09"/><path d="M184.25,12.11c13.32.93,21.61,7.42,23.05,20.94,1.31,12.36-6.79,20.39-20.29,20.36a18.43,18.43,0,0,1-4.93-.82c-9.56-2.77-13.52-9.2-12.8-19.92.32-4.77,1.79-9.23,2.94-13.77C173.13,15.3,179.24,12.08,184.25,12.11Zm-.75,11.78c-1.27,6.74,3.92,10.62,9.61,14a6.25,6.25,0,0,0,7.37-.66c2.35-1.82,2.43-4.38,1.81-6.75C200.61,24,197.48,19,190.05,17.76,184.15,16.77,183.48,17,183.5,23.89Zm-3.73-4.09c-3.43,1.9-4.6,4.6-5.32,7.54-.27,1.11-.66,2.38.5,3.31,5.09,4.09,7.19,9.63,7.7,15.93.1,1.24.3,2.26,1.88,2.58,3.82.76,11.52-2.38,13.76-5.7C187.33,39.51,178.39,34,179.77,19.8ZM174,34.46c.66,4.3-.56,9.3,4.4,12.52C178.57,42,177.6,37.8,174,34.46Z" style="fill:#0d0a09"/><path d="M0,98.37c.73-1.35-1.07-4,1.19-4.2,2.58-.24,2.26,2.58,2.43,4.35.54,5.75,1.78,11.27,4.82,16.27a6,6,0,0,0,2.29,2.69c.68.32,1.53.66,1.38,1.38-.21.94-1.23.91-2.09,1-2.38.22-3.35-1.58-4.38-3.11C1.92,111.22.32,105,0,98.37Z" style="fill:#0d0a09"/><path d="M236,40.32a9.42,9.42,0,0,1-.72,3.83c-.38,1.11-.9,2.11-2.23,1.61-1.07-.4-2.29-1-1.64-2.6,1.48-3.61,1.31-6.86-1.83-9.61a1.14,1.14,0,0,1-.08-1.62c.69-.82,1.19-.12,1.76.23A9.71,9.71,0,0,1,236,40.32Z" style="fill:#0d0a09"/><path d="M18.31,112.85c-2.26.94-4,.63-5.14-1.22a18.41,18.41,0,0,1-3-9.56c0-1.15.13-2.3,1.53-2.26a2.09,2.09,0,0,1,2,2.12A18.88,18.88,0,0,0,18.31,112.85Z" style="fill:#0d0a09"/><path d="M311.58,34.88c-.2,1.06.32,2.19-.9,2.32a2,2,0,0,1-2.15-1.53c-.64-4-3.27-6.05-6.59-7.69-.95-.47-1.87-1.48-1.27-2.6.77-1.44,1.76-.14,2.6.17C307.83,27.21,310.67,30.36,311.58,34.88Z" style="fill:#0d0a09"/><path d="M223.32,40.91c-.15.67-.43,2.06-.79,3.42-.26,1-.67,2-1.94,1.3-.86-.47-2.12-.89-1.52-2.38,1.39-3.41,1.36-6.65-1-9.67a1.21,1.21,0,0,1,.23-1.64c.54-.44,1.15,0,1.59.34C222.36,34.3,223.2,37.08,223.32,40.91Z" style="fill:#0d0a09"/><path d="M319.93,32.62c.2,1.85,0,2.87-.9,3a2.22,2.22,0,0,1-2.39-1.75,13,13,0,0,0-3.35-7.65c-.53-.59-.65-1.39.2-1.78a2.2,2.2,0,0,1,2.6.58C318.45,27.4,319.25,30.47,319.93,32.62Z" style="fill:#0d0a09"/><path d="M218.52,140.83c0,4.26.8,8.55-.58,12.75-.74,2.24.23,3.2,2.47,3,5.43-.57,10.22-3.19,15.18-5.13,2.44-1,2.45-3.9,2.36-6.35-.27-6.95-2.13-13.69-2.8-20.58-1.9-19.43-.23-38.4,7.4-56.63,3.61-8.61,6.68-17.39,7.24-26.87a62.24,62.24,0,0,0-2.11-18.44,10.74,10.74,0,0,0-4.38-5.95c-1.05-.78-2.26-1.35-3.3-2.15-.82-.63-2.1-1.31-1.76-2.45s1.82-1,2.79-1c9.9-.1,18.78,3.29,27,8.47,17.48,11.06,25.79,27.68,28.22,47.64,2.23,18.33,1,36.41-5.59,53.81A296.46,296.46,0,0,1,277,151.19c-2.83,5.5-7.52,9.23-12.47,12.63-6.41,4.39-12.93,8.62-19.38,13-12.89,8.66-27.69,11.62-42.63,12.27-25.86,1.12-51.66-.31-76.91-6.9-22.62-5.91-44-14.62-63.2-28.15C47.2,143.32,38.06,128.38,33,111a78.66,78.66,0,0,1-2.65-19.71C29.58,65.36,36.28,41,45.59,17.15A30.23,30.23,0,0,1,52.46,7,113.84,113.84,0,0,1,62.81,34.46c.76,3.25,1.6,6,5.38,6.63,3.28.54,8.61-1.82,10.24-4.74,1-1.88,1.87-3.88,2.77-5.83C84.3,23.8,89.91,19.19,95,14.12c1.23-1.23,2.29-1,2.1.92-.72,7-.83,14.08-2.77,20.86-.91,3.2-.42,5.34,2.46,6.92a12.35,12.35,0,0,1,3.94,3.39c1.37,1.73,3.47,4.44,5.86.68.59-.93,1.51-.49,2.29-.4,5.36.59,10.7,1.29,16.06,1.79,2.12.2,3.17.76,2.76,3.19-.23,1.34.28,2.81.46,4.23a45,45,0,0,0-4.77,1.54,144.46,144.46,0,0,1-24.81,8.18A25.37,25.37,0,0,0,80.39,80.94c-5,12.12-1.7,23.37,11.67,28a47,47,0,0,0,11.57,2.2c1.56,1.14,3.32.86,5.06.72.92.21,1.84.45,2.77.64,11.41,2.45,23.09,1.78,34.61,3,11.23,1.15,21.65,3.91,29.94,12.68a86.61,86.61,0,0,0,25.22,18.15c5.77,2.8,9.84,2,14.1-2.78C216.26,142.45,216.81,140.93,218.52,140.83ZM85.19,50.19c0,2.65,1.15,4.47,3.65,4.44,3.08,0,3-3,3.27-5a3.61,3.61,0,0,0-3.48-4.16C85.67,45.45,85.49,48.1,85.19,50.19Z" style="fill:#ee9e4d"/><path d="M218.52,140.83c-1.71.1-2.26,1.62-3.19,2.65-4.26,4.76-8.33,5.58-14.1,2.78A86.61,86.61,0,0,1,176,128.11c-8.29-8.77-18.71-11.53-29.94-12.68-11.52-1.18-23.2-.51-34.61-3-.93-.19-1.85-.43-2.78-.64a30.8,30.8,0,0,0,5.44-5.62,36.18,36.18,0,0,1,22.16-14c2.69-.54,5.39-1.06,8-1.84,1.21-.36,3.45-.16,3.22-2-.25-2.06-2.46-2.1-4.08-1.88-2.82.38-5.6,1.08-8.4,1.66C127,89.8,119.49,92.69,113.7,98.86c-3.62,3.86-7.32,7.68-10.07,12.25a47,47,0,0,1-11.57-2.2c-13.37-4.6-16.62-15.85-11.67-28A25.37,25.37,0,0,1,98.54,65.42a144.46,144.46,0,0,0,24.81-8.18,45,45,0,0,1,4.77-1.54L132,59c-7.23,4.1-13.91,7.74-20.44,11.64-4.82,2.87-9.52,6-14.13,9.17-1.94,1.34-4.16,2.37-1.11,5.72,4.54,5,4.31,5.33,10.88,4.21,7.3-1.25,14.75-2.19,21.67-4.62a59.25,59.25,0,0,1,13.75-3,8.66,8.66,0,0,1,5.86,1c1.44.92,3.58,3.07,4.29-.85,0-.2.83-.38,1.27-.36,11.41.49,22.9.43,33.88,4.32,1.71.61,3.5.91,3.62,3.62.07,1.8,2.57,2.65,3.93,1.79,1.78-1.12,2.59-.17,3.67.62A41.33,41.33,0,0,1,209,103C216.64,114.46,220.56,126.93,218.52,140.83ZM182.4,113c.46,3.6-.05,7.77,3.61,10.54.69.53,1.5,1,2.28.41s.35-1.31.1-2a20.62,20.62,0,0,1-1.21-7c-.09-5.5,1.5-6.66,6.66-4.58A46.65,46.65,0,0,1,211,121.8c1.07,1.15,2.63,3.57,4.26,2,1.35-1.29-.59-3.25-1.7-4.53a50.14,50.14,0,0,0-20.81-14C185.77,102.69,182.22,105.35,182.4,113Z" style="fill:#fdfdfd"/><path d="M183.5,23.89c0-6.91.65-7.12,6.55-6.13C197.48,19,200.61,24,202.29,30.47c.62,2.37.54,4.93-1.81,6.75a6.25,6.25,0,0,1-7.37.66C187.42,34.51,182.23,30.63,183.5,23.89Z" style="fill:#a1eb6a"/><path d="M179.77,19.8c-1.38,14.17,7.56,19.71,18.52,23.66-2.24,3.32-9.94,6.46-13.76,5.7-1.58-.32-1.78-1.34-1.88-2.58-.51-6.3-2.61-11.84-7.7-15.93-1.16-.93-.77-2.2-.5-3.31C175.17,24.4,176.34,21.7,179.77,19.8Z" style="fill:#a1eb6a"/><path d="M174,34.46c3.62,3.34,4.59,7.52,4.4,12.52C173.42,43.76,174.64,38.76,174,34.46Z" style="fill:#a1eb6a"/><path d="M103.63,111.11c2.75-4.57,6.45-8.39,10.07-12.25C119.49,92.69,127,89.8,135,88.12c2.8-.58,5.58-1.28,8.4-1.66,1.62-.22,3.83-.18,4.08,1.88.23,1.83-2,1.63-3.22,2-2.63.78-5.33,1.3-8,1.84a36.18,36.18,0,0,0-22.16,14,30.8,30.8,0,0,1-5.44,5.62C107,112,105.19,112.25,103.63,111.11Z" style="fill:#0d0a09"/><path d="M85.19,50.19c.3-2.09.48-4.74,3.44-4.73a3.61,3.61,0,0,1,3.48,4.16c-.23,2-.19,5-3.27,5C86.34,54.66,85.14,52.84,85.19,50.19Z" style="fill:#0d0a09"/><path d="M182.4,113c-.18-7.68,3.37-10.34,10.34-7.77a50.14,50.14,0,0,1,20.81,14c1.11,1.28,3,3.24,1.7,4.53-1.63,1.57-3.19-.85-4.26-2a46.65,46.65,0,0,0-17.15-11.38c-5.16-2.08-6.75-.92-6.66,4.58a20.62,20.62,0,0,0,1.21,7c.25.67.58,1.48-.1,2s-1.59.12-2.28-.41C182.35,120.8,182.86,116.63,182.4,113Z" style="fill:#0d0a09"/></g></g></svg>